<?xml version="1.0" encoding="utf-8"?>
<!-- Generator: Adobe Illustrator 16.0.0, SVG Export Plug-In . SVG Version: 6.00 Build 0)  -->
<!DOCTYPE svg PUBLIC "-//W3C//DTD SVG 1.1//EN" "http://www.w3.org/Graphics/SVG/1.1/DTD/svg11.dtd">
<svg version="1.1" id="Layer_1" xmlns="http://www.w3.org/2000/svg" xmlns:xlink="http://www.w3.org/1999/xlink" x="0px" y="0px"
	 width="90px" height="90px" viewBox="0 0 90 90" enable-background="new 0 0 90 90" xml:space="preserve">
<g>
	<g id="Frame_1_">
		<g>
			<rect fill="#FFAA2B" width="90" height="90"/>
		</g>
	</g>
	<g id="Background_1_">
		<g>
			<rect x="6.855" y="7.226" fill="#3B3323" width="76.109" height="75.55"/>
		</g>
	</g>
	<g id="Shadow2_1_" opacity="0.302">
		<g>
			<path d="M64.389,25.186c0.18,0.123-5.05,5.741-5.05,5.741l6.743,5.455l-6.202,4.73L44.369,25.741l-7.396,1.852l-4.688,15.37
				l-8.478,20.926l25.972,18.889h33.187V40.556C82.966,40.556,64.209,25.063,64.389,25.186z"/>
		</g>
	</g>
	<g id="Shadow_2_" opacity="0.302">
		<g>
			<rect x="6.855" y="7.223" width="76.109" height="2.592"/>
		</g>
	</g>
	<g id="Ai">
		<g>
			<path fill="#FFAA2B" d="M34.09,53.064l-3.196,10.807h-6.997l11.901-38.13h8.65l12.066,38.13h-7.272l-3.361-10.807H34.09z
				 M44.724,47.805l-2.92-9.392c-0.717-2.319-1.322-4.922-1.874-7.128H39.82c-0.552,2.207-1.103,4.865-1.764,7.128l-2.865,9.392
				H44.724z"/>
			<path fill="#FFAA2B" d="M66.432,28.625c0,2.093-1.487,3.734-3.856,3.734c-2.26,0-3.747-1.641-3.747-3.734
				c0-2.15,1.543-3.79,3.802-3.79C64.944,24.835,66.377,26.476,66.432,28.625z M59.214,63.871V36.319h6.833v27.552H59.214
				L59.214,63.871z"/>
		</g>
	</g>
</g>
</svg>
