<?xml version="1.0" encoding="utf-8"?>
<!-- Generator: Adobe Illustrator 16.0.0, SVG Export Plug-In . SVG Version: 6.00 Build 0)  -->
<!DOCTYPE svg PUBLIC "-//W3C//DTD SVG 1.1//EN" "http://www.w3.org/Graphics/SVG/1.1/DTD/svg11.dtd">
<svg version="1.1" id="Layer_1" xmlns="http://www.w3.org/2000/svg" xmlns:xlink="http://www.w3.org/1999/xlink" x="0px" y="0px"
	 width="90px" height="90px" viewBox="0 0 90 90" enable-background="new 0 0 90 90" xml:space="preserve">
<g>
	<g id="Frame_2_">
		<g>
			<rect fill="#EB43A3" width="90" height="90"/>
		</g>
	</g>
	<g id="Background_2_">
		<g>
			<rect x="6.855" y="7.226" fill="#412534" width="76.109" height="75.55"/>
		</g>
	</g>
	<g id="Shadow2_2_" opacity="0.302">
		<g>
			<polygon points="64.93,23.704 61.322,40.371 34.629,25.741 32.285,42.963 27.775,63.889 53.928,82.777 82.966,82.777 
				82.966,37.223 			"/>
		</g>
	</g>
	<g id="Shadow_3_" opacity="0.302">
		<g>
			<rect x="6.855" y="7.223" width="76.109" height="2.592"/>
		</g>
	</g>
	<g id="Id">
		<g>
			<path fill="#EB43A3" d="M34.723,25.741v38.13h-6.776v-38.13H34.723z"/>
			<path fill="#EB43A3" d="M64.752,23.704V56.12c0,2.829,0.109,5.884,0.221,7.751h-6.062l-0.274-4.356h-0.111
				c-1.598,3.055-4.849,4.979-8.761,4.979c-6.392,0-11.46-5.601-11.46-14.087c-0.056-9.221,5.564-14.709,12.012-14.709
				c3.691,0,6.336,1.584,7.549,3.621h0.11V23.704H64.752z M57.975,47.805c0-0.566-0.055-1.245-0.165-1.811
				c-0.606-2.716-2.755-4.922-5.841-4.922c-4.353,0-6.777,3.959-6.777,9.107c0,5.035,2.425,8.713,6.723,8.713
				c2.755,0,5.179-1.924,5.84-4.922c0.166-0.622,0.221-1.301,0.221-2.037V47.805L57.975,47.805z"/>
		</g>
	</g>
</g>
</svg>
