<?xml version="1.0" encoding="utf-8"?>
<!-- Generator: Adobe Illustrator 16.0.0, SVG Export Plug-In . SVG Version: 6.00 Build 0)  -->
<!DOCTYPE svg PUBLIC "-//W3C//DTD SVG 1.1//EN" "http://www.w3.org/Graphics/SVG/1.1/DTD/svg11.dtd">
<svg version="1.1" id="Layer_1" xmlns="http://www.w3.org/2000/svg" xmlns:xlink="http://www.w3.org/1999/xlink" x="0px" y="0px"
	 width="90px" height="90px" viewBox="0 0 90 90" enable-background="new 0 0 90 90" xml:space="preserve">
<g>
	<g id="Frame">
		<g>
			<rect fill="#7EBCF9" width="90" height="90"/>
		</g>
	</g>
	<g id="Background">
		<g>
			<rect x="6.855" y="7.226" fill="#30267E" width="76.109" height="75.55"/>
		</g>
	</g>
	<g id="Shadow2" opacity="0.302">
		<g>
			<polygon points="66.553,37.407 55.731,40.556 41.844,27.222 26.333,28.889 25.792,43.333 22.185,63.889 51.402,82.777 
				82.966,82.777 82.966,49.814 			"/>
		</g>
	</g>
	<g id="Shadow_1_" opacity="0.302">
		<g>
			<rect x="6.855" y="7.223" width="76.109" height="2.592"/>
		</g>
	</g>
	<g id="Ps">
		<g>
			<path fill="#7EBCF9" d="M22.173,26.25c2.424-0.453,5.785-0.792,10.358-0.792c4.959,0,8.596,1.075,10.965,3.111
				c2.204,1.867,3.637,4.865,3.637,8.429c0,3.621-1.103,6.619-3.196,8.656c-2.699,2.772-6.942,4.073-11.735,4.073
				c-1.268,0-2.425-0.057-3.307-0.227v14.37h-6.722V26.25L22.173,26.25z M28.895,44.014c0.827,0.226,1.929,0.283,3.307,0.283
				c5.068,0,8.154-2.546,8.154-7.015c0-4.243-2.865-6.506-7.549-6.506c-1.873,0-3.195,0.17-3.912,0.339V44.014z"/>
			<path fill="#7EBCF9" d="M50.162,57.478c1.543,0.962,4.464,1.98,6.888,1.98c2.976,0,4.298-1.245,4.298-3.055
				c0-1.867-1.102-2.829-4.407-4.017c-5.234-1.867-7.438-4.809-7.384-8.034c0-4.865,3.912-8.656,10.138-8.656
				c2.976,0,5.565,0.792,7.108,1.641L65.48,42.26c-1.157-0.679-3.307-1.584-5.676-1.584c-2.424,0-3.746,1.188-3.746,2.885
				c0,1.753,1.267,2.603,4.684,3.847c4.849,1.811,7.107,4.355,7.162,8.429c0,4.979-3.802,8.6-10.909,8.6
				c-3.251,0-6.171-0.792-8.154-1.924L50.162,57.478z"/>
		</g>
	</g>
</g>
</svg>
